<svg width="161" height="161" viewBox="0 0 161 161" fill="none" xmlns="http://www.w3.org/2000/svg">
<mask id="mask0_988_270" style="mask-type:luminance" maskUnits="userSpaceOnUse" x="3" y="0" width="159" height="161">
<path d="M3.85547 0H161.001V161H3.85547V0Z" fill="white"/>
</mask>
<g mask="url(#mask0_988_270)">
<path d="M80.3817 0.072937C45.8088 0.072937 16.3452 22.0469 5.00146 52.7292C8.1473 51.5886 11.5171 50.9323 15.0535 50.9323C22.7827 50.9323 29.814 53.9427 35.09 58.8229C43.2046 41.9375 60.4286 30.224 80.3817 30.224C108.106 30.224 130.658 52.7761 130.658 80.5C130.658 108.224 108.106 130.776 80.3817 130.776C60.4286 130.776 43.2046 119.063 35.09 102.177C29.814 107.057 22.7879 110.068 15.0535 110.068C11.5171 110.068 8.1473 109.411 5.00146 108.271C16.3452 138.953 45.8088 160.922 80.3817 160.922C124.725 160.922 160.804 124.844 160.804 80.5C160.804 36.1511 124.725 0.072937 80.3817 0.072937Z" fill="#003456"/>
</g>
<mask id="mask1_988_270" style="mask-type:luminance" maskUnits="userSpaceOnUse" x="0" y="65" width="31" height="31">
<path d="M0 65.1927H30.5208V95.8594H0V65.1927Z" fill="white"/>
</mask>
<g mask="url(#mask1_988_270)">
<path d="M15.0467 95.5573C6.74984 95.5573 -0.00537109 88.8021 -0.00537109 80.5C-0.00537109 72.1979 6.74984 65.4479 15.0467 65.4479C23.3488 65.4479 30.104 72.1979 30.104 80.5C30.104 88.8021 23.3488 95.5573 15.0467 95.5573Z" fill="#00AF19"/>
</g>
</svg>
